<svg xmlns="http://www.w3.org/2000/svg" viewBox="0 0 460 460"><g id="freepik--Lines--inject-9"><path d="M236.5,122.69a12.3,12.3,0,0,1-1-2.08c-.6-1.31-1.43-3.1-2.4-5s-1.92-3.7-2.6-5a10.86,10.86,0,0,1-1-2.08,10,10,0,0,1,1.35,1.9c.77,1.21,1.76,2.94,2.74,4.9s1.77,3.8,2.28,5.14A9.13,9.13,0,0,1,236.5,122.69Z" style="fill:#263238"></path><path d="M246.11,98.66c.14,0,.26,5.31.26,11.85s-.12,11.85-.26,11.85-.26-5.3-.26-11.85S246,98.66,246.11,98.66Z" style="fill:#263238"></path><path d="M261.44,109.52a8.42,8.42,0,0,1-.88,1.93c-.61,1.16-1.5,2.73-2.55,4.43s-2.06,3.2-2.83,4.26a8.39,8.39,0,0,1-1.34,1.65c-.12-.08,1.63-2.79,3.73-6.18S261.31,109.45,261.44,109.52Z" style="fill:#263238"></path></g><g id="freepik--character-2--inject-9"><path d="M261.23,150.61s27.72,36.54,28.48,37.1,35.52,20.27,34.72,20.56-8.53,22.08-8.53,22.08L282,207.7a35.07,35.07,0,0,1-12.4-14.5c-6.08-13.17-16.69-36.13-16.65-35.89S261.23,150.61,261.23,150.61Z" style="fill:#ffbf9d"></path><path d="M253.27,158.07s-3.57-3-3.17-7.37,3.53-7.84,3.5-10.74-1.83-5.1-.25-7.24,2.33-.28,2.56-.11,2.23,4.85,2.23,4.85.42-8.77,1.59-12.06,2.77-3.3,3-3.13a9.8,9.8,0,0,1,.54,2.21,1.13,1.13,0,0,1,1.68,1c.23,1.84-2.6,14.64-2.23,16.62s-1.42,6.11-1.48,8.51,2.94,6,2.94,6Z" style="fill:#ffbf9d"></path><path d="M258.68,142.8a13.56,13.56,0,0,1-.41-3,14.13,14.13,0,0,1-.25-3.05,6.73,6.73,0,0,1,.77,3A7,7,0,0,1,258.68,142.8Z" style="fill:#ff9a6c"></path><path d="M262.14,138a46.9,46.9,0,0,1,.27-6.9,47.67,47.67,0,0,1,.79-6.86,43.8,43.8,0,0,1-.27,6.9A46,46,0,0,1,262.14,138Z" style="fill:#ff9a6c"></path><path d="M284.71,191.64a8.48,8.48,0,0,1,2.06-2.08,8.2,8.2,0,0,1,2.4-1.68,8.48,8.48,0,0,1-2.06,2.08A8.35,8.35,0,0,1,284.71,191.64Z" style="fill:#ff9a6c"></path><path d="M354.68,292.37l-53.3,23.56,47.4-2.93s5-4,8.75-6.6c8.51-5.95,7.24-11,7.24-11Z" style="fill:#455a64"></path><path d="M341.48,133.44c-3.39.72-5.92,4.29-6.17,7.46,0,0,.28-.53-2.1-.79a7.41,7.41,0,0,0-5.78,1.51c-1.44,1.3-4.51,5.38-2.59,9-3.64,2.14-.55,13.36.46,16.13,1.44,4,2.2,3.73,6,5.62,6.09,3,7.56-.64,14.08-2.53,12.07-3.51,24.74-4.29,37.28-5,3.15-6.61-.18-16.27-6.6-19.77-6.26-3.42-12.79-1.46-20.78-6.22C355.26,138.8,347.55,132.17,341.48,133.44Z" style="fill:#263238"></path><path d="M319.39,187.55c1.26-7.86,5.23-17.68,9.14-27.48,3.52-8.83,16.17-14.65,24.83-10.76l23.24,13.48-.58,4.68-11.91,32.78-6,23.51L329,221.45l3.65-13.77S316.86,203.34,319.39,187.55Z" style="fill:#ffbf9d"></path><path d="M328.19,174.47a2,2,0,0,0,1.22,2.55,1.93,1.93,0,0,0,2.55-1.08,2,2,0,0,0-1.22-2.55A1.93,1.93,0,0,0,328.19,174.47Z" style="fill:#263238"></path><path d="M328.37,168.33c.13.26,1.68.68,3.44,2s2.75,2.69,3,2.72.05-.34-.37-1a9.9,9.9,0,0,0-2.33-2.31,9,9,0,0,0-2.82-1.43C328.62,168.13,328.3,168.2,328.37,168.33Z" style="fill:#263238"></path><path d="M345,180.21a2,2,0,0,0,1.22,2.55,1.94,1.94,0,0,0,2.55-1.09,2,2,0,0,0-1.22-2.55A1.94,1.94,0,0,0,345,180.21Z" style="fill:#263238"></path><path d="M347.12,176.05c.24.17,1.8-.26,4,0s3.71,1,4,.93-.11-.34-.79-.7a9.37,9.37,0,0,0-3.16-.91,8.28,8.28,0,0,0-3.16.17C347.25,175.74,347,176,347.12,176.05Z" style="fill:#263238"></path><path d="M335.61,187.06c0-.09-.07-.22-2.08-1.13-.52-.22-1-.47-1-.78s.33-.71.73-1.1l2.54-2.62a35.12,35.12,0,0,0,3.9-4.63c-.21-.15-1.09.37-4.66,4.11-.86.93-1.69,1.81-2.48,2.65-.35.4-.86.82-.78,1.53a1.39,1.39,0,0,0,.68.9,5.31,5.31,0,0,0,.86.4C335.4,187.18,335.61,187.06,335.61,187.06Z" style="fill:#263238"></path><path d="M332.69,207.68s6.05,3.23,18,.49c0,0-3.24,8.29-19.44,4.83Z" style="fill:#ff9a6c"></path><path d="M350.48,168.8c0,.71,2,.82,4.08,1.68s3.7,2.05,4.13,1.52c.2-.27,0-1-.53-1.79a6.34,6.34,0,0,0-2.82-2.19,5.66,5.66,0,0,0-3.44-.25C351,168,350.47,168.46,350.48,168.8Z" style="fill:#263238"></path><path d="M330.83,161.78c.15.69,1.84.73,3.6,1.42s3.09,1.7,3.67,1.27c.26-.21.25-.85-.19-1.63a4.86,4.86,0,0,0-2.55-2.09,5,5,0,0,0-3.31-.08C331.2,161,330.77,161.44,330.83,161.78Z" style="fill:#263238"></path><path d="M382.49,158.43s9.3,2.95,7.28,14.13-9.7,19.19-15.85,22.31-9.52,2.81-9.52,2.81l.67-19.92Z" style="fill:#263238"></path><path d="M332.61,152c4.39-4.25,10.72-6.15,16.82-5.91a38,38,0,0,1,17.29,5.49,114.59,114.59,0,0,1,14.78,10.8c1.14.94,2.37,2,2.58,3.48a6,6,0,0,1-.58,2.92l-9,23.75-3.76,4.26c-2.62-.81-4.22-3.42-5.29-5.95a37.75,37.75,0,0,1-.48-28,12.53,12.53,0,0,0-2.56,3,4.16,4.16,0,0,1-3.26,2c-2.22-.1-3.2-3-2.85-5.15s1.43-4.36,1-6.54a25.31,25.31,0,0,1-10.34,4.75c-1.76.37-3.95.38-5-1.12a3.42,3.42,0,0,1,.17-3.61,10,10,0,0,1,2.75-2.63,20,20,0,0,1-11.08,2.59,2.76,2.76,0,0,1-2.26-.93C330.88,154.17,331.73,152.83,332.61,152Z" style="fill:#263238"></path><path d="M368.51,186.88c.26,0,10.11.36,6.75,9.41s-11.75,3.82-11.67,3.55S368.51,186.88,368.51,186.88Z" style="fill:#ffbf9d"></path><path d="M372,196a4.9,4.9,0,0,0,.24-.52,5.54,5.54,0,0,0,.39-2.42,1.92,1.92,0,0,0-.73-1.65.84.84,0,0,0-1.09.09c-.22.2-.23.41-.28.4s-.14-.22.07-.57a1.09,1.09,0,0,1,.57-.43,1.26,1.26,0,0,1,1,.09,2.37,2.37,0,0,1,1.12,2,5.74,5.74,0,0,1-.39,2.72c-.73,1.8-2.3,3.16-3.75,3.06a1.8,1.8,0,0,1-1.35-.78c-.2-.33-.17-.55-.13-.55s.11.17.33.39a1.74,1.74,0,0,0,1.17.46c1,0,2.16-1,2.87-2.31" style="fill:#ff9a6c"></path><path d="M335.19,191.36l7.26-1.45a.73.73,0,0,1,.6.06.63.63,0,0,1,.19.37,4.51,4.51,0,0,1-1.43,4.41,4,4,0,0,1-4.28.54,4.41,4.41,0,0,1-2.34-3.93Z" style="fill:#ff9a6c"></path><path d="M369.33,157.05a.51.51,0,0,0-.07.1c-.05.08-.1.18-.17.31s-.38.68-.65,1.21a27.32,27.32,0,0,0-1.8,4.69,18.53,18.53,0,0,0-.61,7.41,8.47,8.47,0,0,0,1.51,4.15,4.89,4.89,0,0,0,1.84,1.49,3.78,3.78,0,0,0,2.42.27,5.49,5.49,0,0,0,2.45-1.43,14.66,14.66,0,0,0,1.75-2.07h-.22c.67,1.08,1.1,2.26,1.65,3.33a7.23,7.23,0,0,0,2.15,2.7,3.52,3.52,0,0,0,3,.62,4.28,4.28,0,0,0,2.23-1.42,4.91,4.91,0,0,0,1-1.94,6.4,6.4,0,0,0,.22-1.6,6.62,6.62,0,0,0-.05-1c0-.22-.06-.34-.06-.34a2.31,2.31,0,0,0,0,.35c0,.23,0,.56,0,1a6.46,6.46,0,0,1-.26,1.57,5,5,0,0,1-1,1.86,4.15,4.15,0,0,1-2.15,1.33,3.34,3.34,0,0,1-2.8-.61,6.94,6.94,0,0,1-2-2.62c-.54-1.06-1-2.24-1.66-3.36a.13.13,0,0,0-.18,0l0,0a14.73,14.73,0,0,1-1.72,2,5.2,5.2,0,0,1-2.32,1.36,3.48,3.48,0,0,1-2.25-.25,4.68,4.68,0,0,1-1.74-1.4,8.31,8.31,0,0,1-1.47-4,18.63,18.63,0,0,1,.55-7.33,29.14,29.14,0,0,1,1.71-4.7c.26-.53.45-1,.59-1.23a3.16,3.16,0,0,0,.16-.32C369.32,157.09,369.34,157.05,369.33,157.05Z" style="fill:#455a64"></path><path d="M346.17,143.16s0,.14-.05.38a1.86,1.86,0,0,1-.62.87c-.36.31-.87.6-1.41,1.05a2.43,2.43,0,0,0-.68.9,1.63,1.63,0,0,0,0,1.26,2.35,2.35,0,0,0,.9,1.06,4.86,4.86,0,0,0,1.38.58,22.83,22.83,0,0,0,3.2.57,21.67,21.67,0,0,0,10.37-1.5l-.19-.14a16.62,16.62,0,0,0-.05,3.3,5.65,5.65,0,0,0,1.07,2.86,3.65,3.65,0,0,0,2.3,1.46,4.17,4.17,0,0,0,2.34-.35,6.33,6.33,0,0,0,1.62-1.07,10.57,10.57,0,0,0,1-1c.26-.29.45-.53.58-.69s.19-.25.18-.26l-.22.23-.61.66a8.2,8.2,0,0,1-2.63,2,4,4,0,0,1-2.23.31,3.42,3.42,0,0,1-2.15-1.39,5.57,5.57,0,0,1-1-2.74,17,17,0,0,1,.07-3.25.14.14,0,0,0-.12-.15h-.07a21.38,21.38,0,0,1-2.93.95,21.8,21.8,0,0,1-7.31.54,21,21,0,0,1-3.16-.53,4.46,4.46,0,0,1-1.32-.54,2.09,2.09,0,0,1-.84-1,1.42,1.42,0,0,1-.06-1.12,2,2,0,0,1,.62-.84c.5-.45,1-.76,1.37-1.09a1.73,1.73,0,0,0,.6-.94.73.73,0,0,0,0-.29A.36.36,0,0,0,346.17,143.16Z" style="fill:#455a64"></path><path d="M393.47,157c.1-.48-.41-1.06-1.42-1.44a7.56,7.56,0,0,0-7.65,1.87c-.72.81-.9,1.56-.6,1.94.67.77,2.7.11,5-.43S393.24,158,393.47,157Z" style="fill:#263238"></path><path d="M383.23,160.22c.83.53,2.81-1.1,3.77-3.93s.38-5.32-.61-5.4-2,1.87-2.83,4.24S382.37,159.68,383.23,160.22Z" style="fill:#263238"></path><path d="M335.74,194.2c-.08,0,.54,1.17,2.41,1.65a4.46,4.46,0,0,0,3.23-.47,4.77,4.77,0,0,0,2.26-3.3,2.45,2.45,0,0,0-.47-2.19,1.53,1.53,0,0,0-1.13-.36c-.36,0-.65.11-.94.16-1.16.25-2.19.52-3,.77a9.32,9.32,0,0,0-2.7,1,14.33,14.33,0,0,0,2.82-.54c.87-.19,1.9-.41,3.05-.61.57-.11,1.18-.23,1.46.06a1.94,1.94,0,0,1,.24,1.55,4.22,4.22,0,0,1-1.9,2.84,4,4,0,0,1-2.78.54A6.54,6.54,0,0,1,335.74,194.2Z" style="fill:#263238"></path><path d="M362,247.48l38.21,29,46.27,17,4.88-14.31L409.05,257.5l-29.34-28.26Z" style="fill:#ffbf9d"></path><path d="M445.4,293.21c1.84.73,18,5.9,18.74,6.13,2.32.73,3.76-.89,3-1.58-.53-.56-5.81-1.76-5.68-3s9.56-2,10.45-2.08,1.82-1.69,1.33-2.46-8.24.15-8.31-.73,7.17-1.39,8.62-1.61a1.7,1.7,0,0,0,.45-.15,2.21,2.21,0,0,0,1.05-2.94c-.47-1.25-10.1-.58-10.35-1.57s7.44-1.75,8.77-2.25,1.36-2.46.44-3.58-14.48,1.9-15,2.06a5.36,5.36,0,0,1-3.52-2c-.4-.95,3.06-6.81,3.43-8.87a3.58,3.58,0,0,0-1.61-3.35s-3.4,5.54-5.94,7.4-7.74,6.81-7.74,6.81S443.55,292.47,445.4,293.21Z" style="fill:#ffbf9d"></path><path d="M455.27,290.13a8.79,8.79,0,0,0-4.57-3.06l-.42-.09-.53-.14.38-.37a24,24,0,0,0,4.17-6.32,5.93,5.93,0,0,1-.65,2.17,15.6,15.6,0,0,1-3.13,4.58l-.15-.5.45.09a8.41,8.41,0,0,1,4.77,3.42,4.39,4.39,0,0,1,.94,2.23C456.43,292.18,456.14,291.31,455.27,290.13Z" style="fill:#ff9a6c"></path><polygon points="399.25 318.99 384.15 337.72 402.34 348.36 414.01 328.67 399.25 318.99" style="fill:#ffbf9d"></polygon><path d="M395,322.21l7.21-13.06,38.33,23.26c-2.44,3.52-26.43-.55-26.43-.55l-.7,1.13A25.64,25.64,0,0,0,395,322.21Z" style="fill:#37474F"></path><path d="M440.57,332.43c-.58,1.35-2.7,1.05-2.7,1.05l-37.36-21.14,1.73-3.17Z" style="fill:#e0e0e0"></path><path d="M416.06,329.81a10.86,10.86,0,0,0,.59,2.7s-.3-.19-.56-.66a4.28,4.28,0,0,1-.5-2,4.38,4.38,0,0,1,.48-2,2,2,0,0,1,.56-.68A11.45,11.45,0,0,0,416.06,329.81Z" style="fill:#263238"></path><path d="M414,329.08a26,26,0,0,0,.4,2.77,4.84,4.84,0,0,1,0-5.54C414.18,327.22,414.05,328.15,414,329.08Z" style="fill:#263238"></path><path d="M419.22,330.1c-.38,1.24-.24,2.3-.38,2.3a3,3,0,0,1-.08-2.44c.34-1.34,1.32-2.09,1.39-2S419.6,328.86,419.22,330.1Z" style="fill:#263238"></path><path d="M415.8,333.33a11.82,11.82,0,0,0-1,1.43l-.51.9a1,1,0,0,0-.2.8c.06.14.38,0,.61-.19a4.4,4.4,0,0,0,.67-.76,5.34,5.34,0,0,0,.82-1.5c.33-.93.34-1.56.42-1.56a2.89,2.89,0,0,1-.09,1.67,5.51,5.51,0,0,1-.79,1.66,4.6,4.6,0,0,1-.7.82,1.5,1.5,0,0,1-.55.36.67.67,0,0,1-.79-.23.89.89,0,0,1-.08-.76,3.36,3.36,0,0,1,.26-.54l.55-.9a9,9,0,0,1,1.12-1.43,2.88,2.88,0,0,1,1.41-.91C417,332.27,416.47,332.58,415.8,333.33Z" style="fill:#263238"></path><path d="M416.94,332.28h.13a11,11,0,0,0,.05,1.81,8.12,8.12,0,0,0,.28,1.37c.15.44.36,1.12.64,1.12.13,0,.13-.28.13-.62A7.33,7.33,0,0,0,418,335a6.6,6.6,0,0,0-.53-1.51c-.41-.83-.76-1.29-.76-1.33a3.32,3.32,0,0,1,1.06,1.16,5.63,5.63,0,0,1,.66,1.58,6.87,6.87,0,0,1,.17,1,1.88,1.88,0,0,1,0,.58.63.63,0,0,1-.56.55.71.71,0,0,1-.57-.24,1.5,1.5,0,0,1-.26-.44,7.35,7.35,0,0,1-.27-.79,6.64,6.64,0,0,1-.24-1.46,5.44,5.44,0,0,1,.2-1.88v-.16l.08.13a.45.45,0,0,1,.12.25S417.05,332.44,416.94,332.28Z" style="fill:#263238"></path><path d="M291.81,304.08s3.42,46.34,7.7,57.51c8.21,21.33,32.31,21.14,32.31,21.14l-19-87.8Z" style="fill:#263238"></path><path d="M358.9,397.75a36,36,0,0,0,19.88-12.81c11.47-15.15,30.51-43.7,30.51-43.7l-24-17.57-22.76,28.87L359,326.9c4.06-9.32-2.53-30.52-6.05-34.53l-50.81,5.42L311,319.58l17.48,52.86c1.14,3.44,4.85,12.41,7.23,15.13C344.69,398,351.5,399.34,358.9,397.75Z" style="fill:#263238"></path><path d="M311.41,321.2l.57,1.87,2,6.87c1.73,5.82,4.18,13.81,7.09,22.6s5.7,16.67,7.76,22.37c1,2.8,1.85,5.08,2.46,6.74l.65,1.84a2.5,2.5,0,0,1,.19.66,3.23,3.23,0,0,1-.3-.62l-.75-1.79c-.63-1.58-1.55-3.86-2.61-6.7-2.15-5.66-5-13.55-7.92-22.33s-5.3-16.81-6.94-22.65c-.83-2.93-1.47-5.3-1.88-6.94q-.3-1.15-.48-1.89a3.14,3.14,0,0,1-.13-.68A5.07,5.07,0,0,1,311.41,321.2Z" style="fill:#455a64"></path><path d="M362.79,360.75a55.83,55.83,0,0,1-.17-7.76,55.68,55.68,0,0,1,.72,7.73,54.33,54.33,0,0,1,.17,7.76A55.68,55.68,0,0,1,362.79,360.75Z" style="fill:#455a64"></path><path d="M366,254.36l5.76,3.85L394,239.31s-12.44-10.19-18.81-16.25A24.31,24.31,0,0,0,360,216.35s.2,2.62-8.93,3.69-13.19-.2-15.33-1c-5.59-2.06-5.86-7.94-5.86-7.94L320,212s-10.42,5-18.47,25-11.67,73.78-11.67,73.78-4.66,11,11.74,6.95c23-10.55,49.88-27,63.14-22.33C362,290.61,354.57,283,354.57,283l3-8Z" style="fill:#37474F"></path><polygon points="288.06 217.69 305.5 227.01 310.98 228.76 330.67 215.54 331.95 210.46 307.51 196.76 288.06 217.69" style="fill:#37474F"></polygon><path d="M350.17,284.6a16.89,16.89,0,0,1-2.47.57,46.55,46.55,0,0,0-5.86,1.63,47.41,47.41,0,0,0-5.6,2.37,16.14,16.14,0,0,1-2.29,1.1,10,10,0,0,1,2.11-1.42,34.16,34.16,0,0,1,5.61-2.55,34.68,34.68,0,0,1,6-1.5A10.22,10.22,0,0,1,350.17,284.6Z" style="fill:#263238"></path><path d="M359,243a3.6,3.6,0,0,1-.52-.91,12.69,12.69,0,0,1-.92-2.71,14.78,14.78,0,0,1,7.17-16.26,12.77,12.77,0,0,1,2.63-1.15,3.56,3.56,0,0,1,1-.22,29.11,29.11,0,0,0-3.46,1.69,15.06,15.06,0,0,0-7,15.86A31,31,0,0,0,359,243Z" style="fill:#263238"></path><path d="M315.32,213.21a27,27,0,0,1-1.87,2.64c-1.18,1.61-2.76,3.86-4.35,6.45s-2.88,5-3.78,6.8a22,22,0,0,1-1.51,2.86,16.5,16.5,0,0,1,1.17-3,62.9,62.9,0,0,1,3.68-6.91,64.05,64.05,0,0,1,4.49-6.41A16.13,16.13,0,0,1,315.32,213.21Z" style="fill:#263238"></path></g><g id="freepik--character-1--inject-9"><path d="M196.35,203c2.79-.89,25.85-12.14,25.47-13.12S231,152.2,231,152.2s10,2,9.76,2.88,2,40.4-5,46.45C224.76,211,207,218.47,207,218.47Z" style="fill:#ae7461"></path><path d="M238.58,158.1a7.46,7.46,0,0,0,2.8-6.6c-.39-4.37-3.19-8.73-3.16-11.63s1.42-5.24-.16-7.39-2.47.17-2.69.33-2,5.45-2,5.45-.41-8.77-1.58-12.07-2.77-3.29-3-3.13a9.41,9.41,0,0,0-.54,2.21s-.52-1-1.69.18,2.61,15.47,2.24,17.45,2.19,6.89,2.26,9.3-3.09,12-3.09,12Z" style="fill:#ae7461"></path><path d="M233.05,145.09a12,12,0,0,1,.47-7.39,35.59,35.59,0,0,1-.3,3.69A34.25,34.25,0,0,1,233.05,145.09Z" style="fill:#6f4439"></path><path d="M229,139.37a49.11,49.11,0,0,1-.68-7.22,49.09,49.09,0,0,1-.15-7.26,52,52,0,0,1,.67,7.23A51.62,51.62,0,0,1,229,139.37Z" style="fill:#6f4439"></path><path d="M226.57,193.68c-.12.1-1.09-1-2.59-1.9s-2.87-1.38-2.83-1.53a7.23,7.23,0,0,1,5.42,3.43Z" style="fill:#6f4439"></path><path d="M61.62,153.74l18.46,29.73,8.17,11,22,31.11,15.9-10.71S101.64,184.53,95.49,174s-22.21-29.2-22.21-29.2Z" style="fill:#ae7461"></path><path d="M74.72,146.28s-1.06-7.81-2-11.13,0-10.4,0-10.4-2.59-.26-3.68,1.76-2.14,9.41-3.13,10-4-.22-4.35-.73-9.9-12.38-11.43-12-2.91,2-2.08,3.36,6.85,7.26,6,7.93-8.68-6.49-9.93-5.75-2,2.46-.86,3.65,7,6.58,6.28,7.29-6.66-5.41-7.62-5.08-1.25,2.33-.54,3,8.26,7.81,7.52,9-6.08-1.44-6.94-1.38c-1.13.08-1,2.45,1.47,3.42.79.3,18.17,6.95,20.25,7.59S74.72,146.28,74.72,146.28Z" style="fill:#ae7461"></path><path d="M54.91,148.18a5,5,0,0,1,2.34-1.27,9.16,9.16,0,0,1,6.39.36l.46.22-.47.33a16.62,16.62,0,0,1,.46-6.06,6.29,6.29,0,0,1,.92-2.31c.21,0-1.25,3.63-.73,8.3l.07.58-.55-.26-.42-.2a9.57,9.57,0,0,0-6-.51C55.83,147.73,55,148.28,54.91,148.18Z" style="fill:#6f4439"></path><path d="M132.48,141.32a7.66,7.66,0,0,1-4.89,13.74c-2.67-.08-5.5-2.18-5.28-4.85a7.11,7.11,0,0,1-4.45,5.52,5.67,5.67,0,0,1-6.55-2.13,4.72,4.72,0,0,1,1.57-6.44,9,9,0,0,1-7.42-3,7.61,7.61,0,0,1-1.28-7.76,6.58,6.58,0,0,1,6.67-3.89,7.18,7.18,0,0,1,13.25-5.45,7.14,7.14,0,0,1,12.84,5.53,5.73,5.73,0,0,1-3.44,10.77" style="fill:#263238"></path><path d="M195,137.18a7.67,7.67,0,0,1-4.89,13.75c-2.68-.09-5.51-2.18-5.28-4.85a7.15,7.15,0,0,1-4.46,5.52,5.67,5.67,0,0,1-6.54-2.13,4.73,4.73,0,0,1,1.56-6.45,9,9,0,0,1-7.41-3,7.62,7.62,0,0,1-1.28-7.77,6.59,6.59,0,0,1,6.67-3.89,7.18,7.18,0,0,1,13.24-5.44,7.14,7.14,0,0,1,12.85,5.53A5.73,5.73,0,0,1,196,139.23" style="fill:#263238"></path><path d="M127.35,150.38C126,145,127,143.68,130,140.7a9.36,9.36,0,0,1,10-2.23c.59-4.24.61-7.26,4.56-9.37,4.18-2.22,6.06-1.74,10.73-1a17.87,17.87,0,0,1,11.94-2.47,16.18,16.18,0,0,1,10.28,5.74c5.26-.15,10.41,2.83,12.39,7.17.93,2,1.25,4.35,2.76,6.07a10.89,10.89,0,0,1,2.54,4.08c.83,2.87.53,4.23-.63,7.3-.8,2.12-2.49,5.17-1.22,7.05,4.92,7.32-2.35,15.55-4.78,16.17L145.8,194.07a10.85,10.85,0,0,1-10.63,2.09,8.7,8.7,0,0,1-5.92-8c-5.74-3.18-8.24-10.3-5.62-15.95C118.46,167.77,118.78,157.61,127.35,150.38Z" style="fill:#263238"></path><path d="M185.47,159.75c-.78-9.53-11-18.79-20.21-17.53L147,146.31a14.36,14.36,0,0,0-11,14.75l3.22,10.81,3.32,44.64-3.76,1.07s3,20.44,19.81,18.81c15.11-1.46,11.14-19.8,11.14-19.81l-.44-11.85s15-1.25,17.12-17.23C187.41,179.56,186.34,170.34,185.47,159.75Z" style="fill:#ae7461"></path><path d="M182.25,174.59a2,2,0,0,1-1.87,2.11,1.91,1.91,0,0,1-2.09-1.78,2,2,0,0,1,1.87-2.12A1.91,1.91,0,0,1,182.25,174.59Z" style="fill:#263238"></path><path d="M182.88,168.66c-.22.24-1.54-.79-3.44-.78s-3.32,1-3.52.76c-.1-.1.13-.54.75-1a4.84,4.84,0,0,1,2.82-.91,4.46,4.46,0,0,1,2.74.92C182.8,168.11,183,168.55,182.88,168.66Z" style="fill:#263238"></path><path d="M164.48,175.13a2,2,0,0,1-1.87,2.11,1.91,1.91,0,0,1-2.09-1.78,2,2,0,0,1,1.87-2.12A1.91,1.91,0,0,1,164.48,175.13Z" style="fill:#263238"></path><path d="M163.32,168.65c-.22.24-1.54-.8-3.45-.79s-3.31,1-3.51.77.13-.54.75-1a4.79,4.79,0,0,1,2.82-.91,4.43,4.43,0,0,1,2.73.92C163.24,168.1,163.43,168.54,163.32,168.65Z" style="fill:#263238"></path><path d="M169.84,183.53a17.35,17.35,0,0,1,3.47-.63c.54-.06,1.06-.17,1.15-.47s-.11-.77-.38-1.26l-1.63-3.23a88.66,88.66,0,0,1-3.69-8.47c.24-.08,2.28,3.58,4.55,8.18l1.57,3.26a2,2,0,0,1,.3,1.68,1.4,1.4,0,0,1-.9.67,4.94,4.94,0,0,1-.92.13A16.84,16.84,0,0,1,169.84,183.53Z" style="fill:#263238"></path><path d="M169.26,204.75a38.31,38.31,0,0,1-20.85-5.12s5.42,11.21,20.89,9.3Z" style="fill:#6f4439"></path><path d="M163.16,160.19c-.23.69-2.08.23-4.3.45s-4.06.92-4.31.28c-.11-.31.24-.95,1-1.57a6.07,6.07,0,0,1,3.26-1.31,5.38,5.38,0,0,1,3.3.76C162.89,159.29,163.26,159.87,163.16,160.19Z" style="fill:#263238"></path><path d="M182.77,158.8c-.34.63-1.94.18-3.79.34s-3.38.75-3.8.17c-.19-.28,0-.9.64-1.52a4.89,4.89,0,0,1,6.11-.41C182.64,157.92,182.91,158.5,182.77,158.8Z" style="fill:#263238"></path><path d="M139.59,172.65s-10.09-3.34-9.52,6.36,10.75,7.1,10.75,6.82S139.59,172.65,139.59,172.65Z" style="fill:#ae7461"></path><path d="M136.9,182.31c-.05,0-.16.13-.43.28a1.58,1.58,0,0,1-1.23.11c-1-.31-2-1.88-2.1-3.63a5.6,5.6,0,0,1,.32-2.45,1.94,1.94,0,0,1,1.16-1.38.84.84,0,0,1,1,.4c.14.26.09.46.14.47s.19-.17.1-.57a1.14,1.14,0,0,0-.41-.58,1.21,1.21,0,0,0-.93-.19,2.38,2.38,0,0,0-1.63,1.62,6,6,0,0,0-.41,2.75c.18,2,1.26,3.71,2.64,4a1.7,1.7,0,0,0,1.49-.35C136.89,182.55,136.93,182.33,136.9,182.31Z" style="fill:#6f4439"></path><g style="opacity:0.4"><path d="M156.12,180.07a3,3,0,0,1,1.83-.91,6.57,6.57,0,0,1,1.6.13,2.21,2.21,0,0,1,1.33.85,1.38,1.38,0,0,1,.06,1.51,1.88,1.88,0,0,1-1.08.64,6,6,0,0,1-2.1.22,2.26,2.26,0,0,1-1.71-.77A1.34,1.34,0,0,1,156.12,180.07Z" style="fill:#6f4439"></path></g><g style="opacity:0.4"><path d="M179.29,179.68a3,3,0,0,1,1.83-.91,6.57,6.57,0,0,1,1.6.13,2.21,2.21,0,0,1,1.33.85,1.38,1.38,0,0,1,.06,1.51,1.88,1.88,0,0,1-1.08.64,6,6,0,0,1-2.1.22,2.22,2.22,0,0,1-1.71-.77A1.33,1.33,0,0,1,179.29,179.68Z" style="fill:#6f4439"></path></g><path d="M133.05,160a12.25,12.25,0,0,1,2.66-7.25c1.58-2.08,2.46-6.29,4.6-7.8,4.6-3.23,10.95-3.25,16.47-4.34S170.92,136.5,176,139l12.59,14.49c-.58,2.45-4.37,3.69-5.85,2.62a4.88,4.88,0,0,1-1.88-4.85c-2.9,1.34-8.48-.41-9.48-3.44-2.93,3.85-7.23,5-11.33,2.41A7.55,7.55,0,0,1,149,157a8.94,8.94,0,0,1,1.53,6.55c-.51,2.24-2.63,4.2-4.92,3.93a10.43,10.43,0,0,1,2.57,4.69,6,6,0,0,1-1.14,5.09,4.22,4.22,0,0,1-4.88,1.15,7.21,7.21,0,0,1-2.76-3.29q-1.68-3.1-3.34-6.22C134.59,166.13,133.05,163.18,133.05,160Z" style="fill:#263238"></path><path d="M169.3,187.68l-6.6-3.15a.68.68,0,0,0-.58-.09.65.65,0,0,0-.28.31,4.45,4.45,0,0,0,.3,4.56,3.9,3.9,0,0,0,4,1.56,4.34,4.34,0,0,0,3.19-3.19Z" style="fill:#6f4439"></path><path d="M193.33,163.14s0,0-.11-.16a2.3,2.3,0,0,1-.25-.52,4.34,4.34,0,0,1,0-2.24,20.68,20.68,0,0,1,1.19-3.41,18,18,0,0,0,1.34-4.62,8.3,8.3,0,0,0-.3-2.8,7.79,7.79,0,0,0-1.27-2.81,15.42,15.42,0,0,0-1-1.31,9.66,9.66,0,0,1-1.09-1.4,17,17,0,0,1-1.43-3.42,12,12,0,0,0-1.69-3.45,12.44,12.44,0,0,0-2.91-2.83,14.11,14.11,0,0,0-8.29-2.48h-.11l-.07-.09a16,16,0,0,0-9.85-5.58,17.68,17.68,0,0,0-12.06,2.39l-.08.05h-.09c-2.52-.38-5.13-1-7.63-.3s-5.07,2-6.14,4.47a23.22,23.22,0,0,0-1.22,5.95l-.05.33-.31-.13a8.79,8.79,0,0,0-5.34-.33A9.3,9.3,0,0,0,130,141.1c-1.24,1.28-2.53,2.58-2.84,4.26a12.23,12.23,0,0,0,.45,5l0,.15-.11.1a19.48,19.48,0,0,0-6.78,10.88,12.91,12.91,0,0,0,.17,5.91,9.45,9.45,0,0,0,2.86,4.66l.11.1-.06.14a11.88,11.88,0,0,0,.1,9.87,13,13,0,0,0,5.4,5.89l.07,0v.08a7.91,7.91,0,0,0,1.22,4.27,9.32,9.32,0,0,0,2.22,2.42,12.27,12.27,0,0,0,2.36,1.34s-.22-.06-.65-.23a8.93,8.93,0,0,1-4.09-3.43,8,8,0,0,1-1.31-4.38l.07.12a13.24,13.24,0,0,1-5.58-6,12.23,12.23,0,0,1-.16-10.18l0,.24a9.82,9.82,0,0,1-3-4.85,13.36,13.36,0,0,1-.21-6.11,20,20,0,0,1,6.91-11.18l-.08.25a12.92,12.92,0,0,1-.47-5.24,6,6,0,0,1,1.17-2.48,20.76,20.76,0,0,1,1.81-2,9.66,9.66,0,0,1,10.47-2.45l-.36.21a22.79,22.79,0,0,1,1.26-6.1,7.1,7.1,0,0,1,2.76-3.08,15.79,15.79,0,0,1,3.71-1.66,10.44,10.44,0,0,1,4-.3c1.32.14,2.59.38,3.85.59l-.18,0a18.17,18.17,0,0,1,12.41-2.45,16.43,16.43,0,0,1,10.12,5.79l-.18-.08a14.46,14.46,0,0,1,8.54,2.59,12.66,12.66,0,0,1,3,2.94,12.18,12.18,0,0,1,1.72,3.56,17.25,17.25,0,0,0,1.38,3.36,9.79,9.79,0,0,0,1,1.36,16.72,16.72,0,0,1,1,1.35,8.37,8.37,0,0,1,1.29,2.91,8.82,8.82,0,0,1,.28,2.9,11.25,11.25,0,0,1-.6,2.54c-.27.77-.54,1.48-.82,2.14a21.84,21.84,0,0,0-1.24,3.36,4.43,4.43,0,0,0-.06,2.19A6.34,6.34,0,0,0,193.33,163.14Z" style="fill:#455a64"></path><polygon points="59.99 387.68 81.69 380.39 75.89 362.78 53.62 371.22 59.99 387.68" style="fill:#ae7461"></polygon><path d="M65.15,388.17l-1.22.43s-1,23.67-4.87,25.28L44.73,372.65l13.91-4.2A25,25,0,0,0,65.15,388.17Z" style="fill:#37474F"></path><path d="M44.75,372.65l3.37-1,12.52,39.88s-.15,2.07-1.56,2.35Z" style="fill:#e0e0e0"></path><path d="M58.88,390a1.8,1.8,0,0,1,.76-.4,4.26,4.26,0,0,1,2-.05,4.13,4.13,0,0,1,1.84.9c.4.34.56.63.52.67A10.09,10.09,0,0,0,61.58,390,10.17,10.17,0,0,0,58.88,390Z" style="fill:#263238"></path><path d="M58.6,387.68a4.69,4.69,0,0,1,5.27,1.13,26.05,26.05,0,0,0-2.55-.95C60.41,387.76,59.51,387.7,58.6,387.68Z" style="fill:#263238"></path><path d="M59,393.54a2.73,2.73,0,0,1,2.17-.93,2.92,2.92,0,0,1,2.3.58c0,.13-1-.21-2.26-.1S59.08,393.66,59,393.54Z" style="fill:#263238"></path><path d="M63.68,391.35a2.61,2.61,0,0,1,1.15-1.15,7.82,7.82,0,0,1,1.59-.78l1-.34a3,3,0,0,1,.57-.14.85.85,0,0,1,.71.23.66.66,0,0,1,.06.8,1.61,1.61,0,0,1-.45.45,4.91,4.91,0,0,1-.93.5,5.32,5.32,0,0,1-1.74.41,2.79,2.79,0,0,1-1.61-.25c0-.08.62,0,1.57-.09a5.64,5.64,0,0,0,1.6-.46A4.52,4.52,0,0,0,68,390c.27-.17.43-.45.31-.54a1,1,0,0,0-.8,0l-1,.31a10.8,10.8,0,0,0-1.57.65C64.14,391,63.74,391.39,63.68,391.35Z" style="fill:#263238"></path><path d="M63.9,391.59a.49.49,0,0,1-.22-.17l-.1-.1.15,0a5.36,5.36,0,0,1,1.83.19,6.24,6.24,0,0,1,1.34.53,8,8,0,0,1,.7.41,1.67,1.67,0,0,1,.36.34.71.71,0,0,1,.12.6.62.62,0,0,1-.64.42,2.66,2.66,0,0,1-.56-.12,6.55,6.55,0,0,1-.92-.37,5.89,5.89,0,0,1-1.37-1,3.19,3.19,0,0,1-.88-1.24s.4.43,1.1,1a7,7,0,0,0,1.33.81,5.29,5.29,0,0,0,.87.31c.32.07.63.14.62,0s-.55-.6-.94-.83a6.08,6.08,0,0,0-1.25-.55,10.16,10.16,0,0,0-1.71-.42l0-.12C63.89,391.49,63.92,391.57,63.9,391.59Z" style="fill:#263238"></path><polygon points="166.06 438.44 174.27 417.08 157 410.32 149.31 432.87 166.06 438.44" style="fill:#ae7461"></polygon><path d="M169.72,434.78l-.44,1.22s17.59,15.86,16.38,19.85l-40.91-15.23,5.63-13.4A25,25,0,0,0,169.72,434.78Z" style="fill:#37474F"></path><path d="M144.77,440.61l1.37-3.24,38.71,15.77s1.5,1.44.82,2.7Z" style="fill:#e0e0e0"></path><path d="M167.14,440.78a2,2,0,0,1,.18-.84,4.38,4.38,0,0,1,1.27-1.6,4.15,4.15,0,0,1,1.86-.84c.52-.1.84,0,.85,0a10.5,10.5,0,0,0-2.43,1.18A11.12,11.12,0,0,0,167.14,440.78Z" style="fill:#263238"></path><path d="M165.17,439.52a4.71,4.71,0,0,1,4.24-3.35,23,23,0,0,0-2.36,1.37A27,27,0,0,0,165.17,439.52Z" style="fill:#263238"></path><path d="M170,442.93a2.7,2.7,0,0,1,.67-2.26,3,3,0,0,1,1.91-1.41c.08.11-.81.64-1.52,1.68S170.08,443,170,442.93Z" style="fill:#263238"></path><path d="M171.24,437.94a2.73,2.73,0,0,1-.16-1.62,9.17,9.17,0,0,1,.41-1.72l.36-1a3.22,3.22,0,0,1,.25-.53.87.87,0,0,1,.63-.4.65.65,0,0,1,.65.46,1.39,1.39,0,0,1,.06.64,4.66,4.66,0,0,1-.2,1,5.22,5.22,0,0,1-.8,1.6,2.78,2.78,0,0,1-1.22,1.08c-.05-.07.43-.46.94-1.27a5.33,5.33,0,0,0,.66-1.53,3.94,3.94,0,0,0,.16-1c0-.32-.07-.62-.22-.58a1,1,0,0,0-.48.63l-.38.94a11.38,11.38,0,0,0-.5,1.63C171.24,437.35,171.31,437.92,171.24,437.94Z" style="fill:#263238"></path><path d="M171.56,437.92a.42.42,0,0,1-.26.06l-.15,0,.12-.1a5.39,5.39,0,0,1,1.32-1.29,5.93,5.93,0,0,1,1.26-.69,6.92,6.92,0,0,1,.76-.28,1.38,1.38,0,0,1,.49-.06.67.67,0,0,1,.53.29.61.61,0,0,1-.08.76,2.51,2.51,0,0,1-.44.35,7.37,7.37,0,0,1-.87.48,5.64,5.64,0,0,1-1.62.44,3,3,0,0,1-1.51-.11s.59,0,1.47-.21a7.12,7.12,0,0,0,1.47-.51,6.86,6.86,0,0,0,.79-.47c.26-.21.5-.4.4-.48s-.81.05-1.23.19a7.09,7.09,0,0,0-1.23.62,11,11,0,0,0-1.41,1.05l-.08-.1C171.48,437.87,171.56,437.89,171.56,437.92Z" style="fill:#263238"></path><path d="M118.8,296.19c-.53,1.63-8,48.78-8,48.78L58.89,364.69,69.3,390.13s48.07-14.61,62.41-21.22S159,308.48,159,308.48l-3.36-24.92-37.41-3.63Z" style="fill:#263238"></path><path d="M190.82,321.87s4.36,41,3.9,50.39-16.45,60.83-16.45,60.83l-28.2-10,13.47-51s-20.22-71.58-15.63-80.79c.49-1,8.58-2.46,19.41-1l22.45,4.75Z" style="fill:#263238"></path><path d="M157,317a12.3,12.3,0,0,1-.55,2.81c-.44,1.71-1.14,4.05-2,6.6s-1.69,4.85-2.33,6.49a14,14,0,0,1-1.15,2.62,16.61,16.61,0,0,1,.81-2.74c.61-1.84,1.36-4.07,2.18-6.53s1.61-4.86,2.13-6.54A20.44,20.44,0,0,1,157,317Z" style="fill:#455a64"></path><path d="M121.82,213.83a5.07,5.07,0,0,1,.1,1.2c0,.77,0,1.88,0,3.26,0,2.76-.13,6.56-.36,10.76s-.42,7.87-.58,10.74c-.05,1.29-.1,2.38-.14,3.25a6.21,6.21,0,0,1-.11,1.2,5.07,5.07,0,0,1-.1-1.2c0-.77,0-1.88,0-3.26,0-2.76.2-6.56.42-10.76s.41-8,.52-10.74c0-1.29.09-2.38.12-3.25A5.34,5.34,0,0,1,121.82,213.83Z" style="fill:#263238"></path><path d="M189.64,253.31c.06-3.61,0-8.46-.06-13.61l.06.17,29-18.31-12.52-23.39s-15.64,7.53-19.1,9c-2.57,1.08-6.38,2.48-7.93,3l-9.75-.05s-3,5.8-12.81,5.8c-12,0-14.73-7.81-14.73-7.81l-8.32.86s-4.52-3-7.79-.86l-14.82-13.84-17.95,18,28.32,30L116,303.57s16.46,5.83,40.85,6.28c23.12.42,33.74-4.67,33.74-4.67S189.4,266.54,189.64,253.31Z" style="fill:#37474F"></path><path d="M116.86,199.88l-6-5.59-17.95,18,5.6,5.93Z" style="fill:#fff"></path><path d="M124.14,212.76l1.87,0,2.55-5.45a4.92,4.92,0,0,0-2.86.78l-3.18-3c-4.78,6.75-10.3,15.45-15.15,22.38l7.85,8.32,5.68-12.14c-.42,0-.8-.07-1.14-.11C119.41,220,124.49,216.41,124.14,212.76Z" style="fill:#fff"></path><path d="M202.64,231.67c-3.95-8.44-8-18-12-26.16-1.59.74-2.9,1.33-3.64,1.64-.95.4-2.07.85-3.19,1.27.66,1.73,1.32,3.5,1.95,5.33,1.94,0,3.61-.11,4.94-.19l-1.41,12.09H189a59.58,59.58,0,0,1,1,9.84l6.43.11Z" style="fill:#fff"></path><path d="M213.56,224.77l5.09-3.21-12.52-23.39-6.31,3C204,208.61,209.5,217.45,213.56,224.77Z" style="fill:#fff"></path><path d="M120.12,255.33l-1,11.36c20.31.47,50.91.83,70.55,1.31-.07-4.3-.1-8.28-.09-11.49Z" style="fill:#fff"></path><path d="M116.83,293.76c20.88.5,53.56.87,73.47,1.38-.09-3.37-.2-7.33-.29-11.51L117.8,282.4Z" style="fill:#fff"></path><path d="M189.64,239.87l6.76-4.27-6.43-.11c-25.8-.44-60.5-1-68.58-1.17,0,2.41-.2,5.19-.34,7.72l.2.21-.36,4.17h0c7,.83,43.12.63,68.78.79,0-2.34,0-4.89-.09-7.51Z" style="fill:#fff"></path><path d="M190.73,213.56c-1.33.08-3,.15-4.94.19-5.24.11-12.46.06-20.18-.05a17.31,17.31,0,0,1-9.07,2.24,18.46,18.46,0,0,1-10.19-2.63c-8.25-.2-15.66-.41-20.34-.51l-1.87,0c.35,3.65-4.73,7.2-4.38,10.86.34,0,.72.08,1.14.11,12.19,1.15,57.36,1.72,68.11,1.92h.31Z" style="fill:#fff"></path><path d="M120.81,217.66a3.7,3.7,0,0,1,.18,1c.07.67.16,1.63.25,2.82.18,2.38.35,5.68.39,9.32s0,6.94-.16,9.33c-.06,1.19-.12,2.15-.19,2.82a4.73,4.73,0,0,1-.14,1,3.57,3.57,0,0,1-.06-1c0-.78,0-1.72,0-2.82,0-2.39.06-5.68,0-9.31s-.15-6.93-.24-9.31q0-1.65-.09-2.82A4.69,4.69,0,0,1,120.81,217.66Z" style="fill:#263238"></path><path d="M188.18,221.58a14.33,14.33,0,0,1,.63,2.89c.3,1.8.63,4.31.86,7.08a72.41,72.41,0,0,1,.23,9.54l0,.22-.12-.17c-.23-.3-.33-.45-.3-.47s.16.1.42.36l-.14.06c-.11-1.28-.22-5.06-.59-9.49-.23-2.77-.5-5.27-.71-7.08A20.73,20.73,0,0,1,188.18,221.58Z" style="fill:#263238"></path><path d="M189.64,253.31s0,.31,0,.9,0,1.49,0,2.64c0,2.34.06,5.77.12,10.22.15,8.91.46,21.87,1,38.1v.12l-.1,0a63.71,63.71,0,0,1-15.87,3.82,128.27,128.27,0,0,1-18.17.9,167,167,0,0,1-19.82-1.6,129.28,129.28,0,0,1-20.88-4.66l-.17-.05v-.19c1.61-18.83,3.38-39.56,5.24-61.33l.07.2-20.83-22-7.49-7.94-.17-.18.18-.18,18-18,.17-.18.19.17L125.87,208l-.31,0a5.32,5.32,0,0,1,2-.76,7.37,7.37,0,0,1,2.15.06,11.38,11.38,0,0,1,3.89,1.57l-.16,0,8.31-.86.18,0,.08.18a10.4,10.4,0,0,0,2.32,3.34,12.84,12.84,0,0,0,3.3,2.38,18.76,18.76,0,0,0,7.78,1.89,19.27,19.27,0,0,0,7.76-1.08,11.78,11.78,0,0,0,6-4.55l.08-.12h.12l9.75.06H179l7.26-2.78c2.35-1,4.6-2.12,6.84-3.14L206.05,198l.17-.08.09.16c4.61,8.65,8.75,16.42,12.48,23.4l.07.14-.13.08-29,18.25-.09.05,0-.1-.07-.17.17,0c0,4.54,0,7.94,0,10.22,0,1.12,0,2,0,2.55s0,.84,0,.84,0-.28,0-.84,0-1.43,0-2.55l-.09-10.22v-.48l.18.45.06.17-.13,0,29-18.38-.06.22c-3.74-7-7.9-14.74-12.54-23.37l.26.08-12.92,6.09c-2.25,1-4.49,2.17-6.84,3.16l-7.28,2.8h-.08l-9.75,0,.2-.13a12.15,12.15,0,0,1-6.18,4.78,19.76,19.76,0,0,1-8,1.12,19.21,19.21,0,0,1-8-1.94,12.45,12.45,0,0,1-5.87-6l.26.16-8.31.86h-.09l-.08-.05a11,11,0,0,0-3.7-1.49,6.93,6.93,0,0,0-2-.06,5.19,5.19,0,0,0-1.84.69l-.17.11-.14-.13-14.81-13.84h.35l-18,18v-.37l7.49,7.94c7.14,7.55,14.15,15,20.82,22l.08.08v.12c-1.87,21.76-3.66,42.5-5.28,61.32l-.15-.24A129.45,129.45,0,0,0,136.86,308a166,166,0,0,0,19.76,1.62,127.62,127.62,0,0,0,18.11-.85A63.33,63.33,0,0,0,190.51,305l-.1.16c-.46-16.23-.72-29.2-.82-38.11,0-4.45-.05-7.89,0-10.22,0-1.15,0-2,0-2.64S189.64,253.31,189.64,253.31Z" style="fill:#263238"></path><g style="opacity:0.30000000000000004"><path d="M134.37,292.14h0Z"></path><path d="M171.42,266.48a199.25,199.25,0,0,1-37,25.66C150.37,292.14,165.82,281.44,171.42,266.48Z"></path></g><g style="opacity:0.30000000000000004"><path d="M191.88,231.15a19.48,19.48,0,0,0-3.43-8.34h-.09a60.47,60.47,0,0,1,1.29,16.92A11.32,11.32,0,0,0,191.88,231.15Z"></path></g></g></svg>
