<svg width="24" height="24" viewBox="0 0 24 24" fill="none" xmlns="http://www.w3.org/2000/svg">
<path d="M12.3291 21.3399C11.2391 21.3399 10.1491 20.9299 9.31906 20.0999C7.65906 18.4399 7.65906 15.7499 9.31906 14.0899L11.7991 11.6199C12.0891 11.3299 12.5691 11.3299 12.8591 11.6199C13.1491 11.9099 13.1491 12.3899 12.8591 12.6799L10.3791 15.1499C9.30906 16.2199 9.30906 17.9699 10.3791 19.0399C11.4491 20.1099 13.1991 20.1099 14.2691 19.0399L18.1591 15.1499C19.3391 13.9699 19.9891 12.3999 19.9891 10.7299C19.9891 9.05986 19.3391 7.48986 18.1591 6.30986C15.7191 3.86986 11.7591 3.86986 9.31906 6.30986L5.07906 10.5499C4.08906 11.5399 3.53906 12.8599 3.53906 14.2599C3.53906 15.6599 4.08906 16.9799 5.07906 17.9699C5.36906 18.2599 5.36906 18.7399 5.07906 19.0299C4.78906 19.3199 4.30906 19.3199 4.01906 19.0299C2.74906 17.7499 2.03906 16.0599 2.03906 14.2599C2.03906 12.4599 2.73906 10.7599 4.01906 9.48986L8.25906 5.24986C11.2791 2.22986 16.1991 2.22986 19.2191 5.24986C20.6791 6.70986 21.4891 8.65986 21.4891 10.7299C21.4891 12.7999 20.6791 14.7499 19.2191 16.2099L15.3291 20.0999C14.4991 20.9299 13.4191 21.3399 12.3291 21.3399Z" fill="#292D32"/>
</svg>
